Coordinates
version=1
nRows=22
nColumns=24
inDegrees=yes

Units are S.I. units (second, meters, Newtons, ...)
Angles are in degrees.

endheader
time	pelvis_tilt	pelvis_list	pelvis_rotation	pelvis_tx	pelvis_ty	pelvis_tz	hip_flexion_r	hip_adduction_r	hip_rotation_r	knee_angle_r	ankle_angle_r	subtalar_angle_r	mtp_angle_r	hip_flexion_l	hip_adduction_l	hip_rotation_l	knee_angle_l	ankle_angle_l	subtalar_angle_l	mtp_angle_l	lumbar_extension	lumbar_bending	lumbar_rotation
      2.62500000	     24.92060911	     -2.97359002	      1.52430334	     -0.26601185	      1.03887442	     -0.04339633	     -5.76531417	     -2.64653414	    -13.49124023	    -27.53196429	      6.65594782	     -8.82861569	     28.35528906	    -30.56030099	     -2.02119964	     -6.96289959	     -7.86683296	     15.41263368	     -0.12305071	      0.35906824	    -39.37794506	      1.31492411	      0.66197191
      2.63000000	     24.85636350	     -2.93847297	      1.55098103	     -0.26110067	      1.03835050	     -0.04301035	     -5.73365983	     -2.52299885	    -13.53030361	    -25.93426436	      6.66550315	     -8.55063406	     28.17761325	    -30.91013591	     -2.02764955	     -6.99030576	     -7.66315683	     15.51071576	      0.04194780	      0.39941776	    -39.36129845	      1.27616936	      0.64805627
      2.63500000	     24.72664081	     -2.91262478	      1.56726026	     -0.25616242	      1.03771284	     -0.04262361	     -5.63541753	     -2.39327697	    -13.56760105	    -24.34048702	      6.62367703	     -8.24645872	     28.07889967	    -31.18899019	     -2.03432972	     -7.00591024	     -7.46169855	     15.59537914	      0.12443184	      0.43457414	    -39.27497983	      1.24523598	      0.64910394
      2.64000000	     24.72394525	     -2.84795552	      1.60806772	     -0.25121604	      1.03719530	     -0.04221125	     -5.71776176	     -2.28912013	    -13.63301384	    -22.69996686	      6.59392397	     -7.90286600	     27.91404376	    -31.61418439	     -2.02438164	     -7.03185902	     -7.24320114	     15.69985328	      0.33615557	      0.51592677	    -39.32418317	      1.18534894	      0.59414371
      2.64500000	     24.65331235	     -2.79612896	      1.63453113	     -0.24624358	      1.03656745	     -0.04177658	     -5.72772257	     -2.17277640	    -13.68578334	    -21.07335318	      6.50992741	     -7.53981176	     27.76264281	    -31.96169706	     -2.01827431	     -7.05540234	     -7.03648804	     15.79189394	      0.48037690	      0.61174843	    -39.29944636	      1.13227566	      0.57597002
      2.65000000	     24.56529488	     -2.73241061	      1.65538612	     -0.24124140	      1.03589551	     -0.04132836	     -5.73067983	     -2.06824643	    -13.73863898	    -19.45206445	      6.39592598	     -7.16264429	     27.63119678	    -32.28891742	     -1.99863455	     -7.07193193	     -6.83617983	     15.87966121	      0.61890094	      0.72526350	    -39.25596694	      1.06662671	      0.54634480
      2.65500000	     24.50553419	     -2.66470377	      1.67944590	     -0.23623219	      1.03522361	     -0.04086859	     -5.77831048	     -1.96334189	    -13.80273965	    -17.83400282	      6.24152636	     -6.78100716	     27.51700027	    -32.64848553	     -1.97836643	     -7.09224962	     -6.63270253	     15.95205821	      0.75774445	      0.85441293	    -39.24382208	      1.00021417	      0.51940720
      2.66000000	     24.43794751	     -2.57966034	      1.69814860	     -0.23120241	      1.03452019	     -0.04037864	     -5.82469467	     -1.87502274	    -13.87089481	    -16.23832341	      6.06324724	     -6.38227515	     27.41844904	    -32.99189452	     -1.94218604	     -7.11144891	     -6.44739503	     16.01519703	      0.90870541	      1.00498763	    -39.22114060	      0.91483669	      0.49599081
      2.66500000	     24.36332095	     -2.49551275	      1.71903622	     -0.22613599	      1.03378247	     -0.03987449	     -5.86894928	     -1.78354730	    -13.95405203	    -14.67531236	      5.84546829	     -5.99608354	     27.33360653	    -33.33395047	     -1.90875890	     -7.13027068	     -6.25204408	     16.08667873	      1.05327789	      1.17174541	    -39.19115929	      0.83181547	      0.45350816
      2.67000000	     24.29831231	     -2.40233582	      1.71906535	     -0.22105926	      1.03302434	     -0.03931571	     -5.91780980	     -1.70637784	    -14.04157818	    -13.17151874	      5.70547279	     -5.46061975	     26.78822506	    -33.66651162	     -1.86518706	     -7.22305796	     -6.09910479	     16.03397107	      1.27221656	      2.81861646	    -39.17022741	      0.72713091	      0.45227223
      2.67500000	     24.25432349	     -2.29231898	      1.76232626	     -0.21597357	      1.03228802	     -0.03879995	     -6.01127975	     -1.62916146	    -14.14592988	    -11.67603390	      5.41307114	     -5.17919767	     26.76542798	    -34.03183752	     -1.82168068	     -7.15561909	     -5.91713376	     16.03552647	      1.29926963	      2.91117405	    -39.17273024	      0.63390527	      0.39039786
      2.68000000	     24.20522725	     -2.19835661	      1.79811384	     -0.21081672	      1.03152896	     -0.03826460	     -6.09111846	     -1.54158522	    -14.28973170	    -10.25942536	      5.14908897	     -4.77155146	     26.76466248	    -34.38558563	     -1.79619377	     -7.17451819	     -5.76095286	     16.09623327	      1.47551500	      3.05645858	    -39.16336704	      0.55402013	      0.34590010
      2.68500000	     24.16043613	     -2.09354848	      1.82759547	     -0.20563685	      1.03075090	     -0.03769257	     -6.16738830	     -1.46490498	    -14.44332750	     -8.91917076	      4.87750505	     -4.37829928	     26.77038463	    -34.74045766	     -1.76137169	     -7.20079843	     -5.61463792	     16.15236914	      1.65503908	      3.23601121	    -39.15805848	      0.45902770	      0.30122647
      2.69000000	     24.10059672	     -1.99108735	      1.85481087	     -0.20043047	      1.02994629	     -0.03710539	     -6.21118597	     -1.38731468	    -14.60070486	     -7.67466378	      4.60161802	     -4.00790960	     26.78046206	    -35.07298267	     -1.72926924	     -7.22421427	     -5.48190048	     16.21013779	      1.82859178	      3.42881135	    -39.13579534	      0.36713465	      0.25016571
      2.69500000	     24.07060070	     -1.89793751	      1.90204298	     -0.19518541	      1.02917935	     -0.03652076	     -6.28740573	     -1.29493719	    -14.78485168	     -6.50643997	      4.35320536	     -3.63314168	     26.80372274	    -35.42551825	     -1.72295237	     -7.24890171	     -5.37534593	     16.25629838	      2.02820394	      3.66612874	    -39.14053345	      0.29622438	      0.20734722
      2.70000000	     24.05265899	     -1.80683804	      1.94755127	     -0.18992197	      1.02840860	     -0.03591855	     -6.35770216	     -1.20236432	    -14.98053793	     -5.44647728	      4.12131764	     -3.26720226	     26.83762325	    -35.78588149	     -1.72045469	     -7.28397356	     -5.28049750	     16.29855848	      2.23386901	      3.94277379	    -39.15740643	      0.22689841	      0.16478505
      2.70500000	     24.03728057	     -1.71937275	      2.00383656	     -0.18463772	      1.02765035	     -0.03531434	     -6.41849382	     -1.10528973	    -15.17777647	     -4.49007439	      3.93272287	     -2.91103763	     26.89299600	    -36.12701175	     -1.73268490	     -7.30718569	     -5.22975627	     16.33067063	      2.44986083	      4.31549896	    -39.17656287	      0.17024921	      0.12798206
      2.71000000	     24.01045948	     -1.64968565	      2.05534924	     -0.17927841	      1.02688087	     -0.03470269	     -6.44101679	     -0.99503493	    -15.39077647	     -3.66454540	      3.72735586	     -2.61637103	     26.93739134	    -36.47394261	     -1.75674444	     -7.34461475	     -5.14773978	     16.36826314	      2.63843861	      4.64584641	    -39.17467384	      0.13092159	      0.07492468
      2.71500000	     24.00514033	     -1.58341839	      2.12645421	     -0.17391509	      1.02613971	     -0.03408416	     -6.47828207	     -0.87922687	    -15.59952270	     -2.94196458	      3.60387778	     -2.31517181	     26.99973759	    -36.81561699	     -1.80437066	     -7.37221412	     -5.12020710	     16.39223940	      2.86666316	      5.04627078	    -39.19701433	      0.10543359	      0.02986105
      2.72000000	     24.02511646	     -1.53737428	      2.20768025	     -0.16851794	      1.02543447	     -0.03347357	     -6.52495288	     -0.74364959	    -15.81769966	     -2.34031511	      3.50830013	     -2.04263673	     27.07635371	    -37.17441911	     -1.87900418	     -7.41111784	     -5.11423793	     16.40174377	      3.09036189	      5.56260750	    -39.24325186	      0.10871504	     -0.00058439
      2.72500000	     24.01935638	     -1.49632923	      2.29238539	     -0.16305723	      1.02471403	     -0.03286231	     -6.52272577	     -0.61014630	    -16.03242913	     -1.86999388	      3.41902406	     -1.82515069	     27.14831336	    -37.50213648	     -1.96205071	     -7.44192859	     -5.11771827	     16.41973518	      3.31089632	      6.10398570	    -39.25384713	      0.12128378	     -0.05396832
      2.73000000	     23.96920360	     -1.45174306	      2.33285019	     -0.15762880	      1.02395484	     -0.03220505	     -6.43250069	     -0.50116331	    -16.15804252	     -1.54735027	      3.35703709	     -1.63081078	     27.53174356	    -37.76267702	     -2.01144921	     -7.45526105	     -5.13965613	     16.05866372	      3.25123198	      9.54823969	    -39.22396949	      0.10830844	     -0.05654677
